<?xml version="1.0" encoding="UTF-8" standalone="no"?>
<svg
   xmlns:dc="http://purl.org/dc/elements/1.1/"
   xmlns:cc="http://creativecommons.org/ns#"
   xmlns:rdf="http://www.w3.org/1999/02/22-rdf-syntax-ns#"
   xmlns:svg="http://www.w3.org/2000/svg"
   xmlns="http://www.w3.org/2000/svg"
   viewBox="0 0 951 1024"
   height="1024"
   width="951"
   id="svg3715"
   version="1.1">
  <metadata
     id="metadata3721">
    <rdf:RDF>
      <cc:Work
         rdf:about="">
        <dc:format>image/svg+xml</dc:format>
        <dc:type
           rdf:resource="http://purl.org/dc/dcmitype/StillImage" />
        <dc:title></dc:title>
      </cc:Work>
    </rdf:RDF>
  </metadata>
  <defs
     id="defs3719" />
  <path
     id="path3725"
     d="m 334.51736,1011.4845 c -1.8642,-0.9195 -4.0138,-3.2596 -5.261,-5.7272 C 327.05606,1001.404 7.9125622,62.714486 5.3587622,53.084746 c -2.5603,-9.65409 1.5062,-18.19064 10.2572998,-21.53273 7.9998,-3.05512 14.6125,1.1728 18.0577,11.54539 1.1965,3.60224 2.0207,4.80072 2.8407,4.13037 0.7377,-0.60312 5.1301,-0.25963 12.1551,0.95053 56.978098,9.81529 134.790098,15.79109 168.984398,12.97763 25.8691,-2.12847 30.3634,-3.62929 73.7626,-24.63251 54.797,-26.51922 75.403,-33.4942697 95.1976,-32.2239297 14.4046,0.92443 24.2164,7.9695097 31.0369,22.2852497 4.9351,10.3585 7.0955,20.96606 10.4886,51.5 1.6808,15.125 3.3082,28.725494 3.6165,30.223324 0.6518,3.16629 0.6617,3.16976 23.4134,8.2259 60.2674,13.39329 124.185,19.40254 194,18.23901 64.2829,-1.07132 67.7414,-1.58843 122,-18.24098 63.4052,-19.459744 78.5077,-23.447254 88.8053,-23.447254 8.3325,0 8.9815,1.07692 5.8616,9.726074 -14.9213,41.36518 -23.41,169.01965 -16.8492,253.38167 3.0298,38.95969 7.4368,59.89412 23.5689,111.95843 8.2036,26.4765 13.1199,40.9015 43.443,127.4676 16.1173,46.0117 24.7267,72.9472 28.695,89.7758 3.9936,16.9355 4.1352,16.8928 -16.5246,4.9765 -52.834,-30.4738 -104.0586,-51.36 -148.7781,-60.6622 -26.4364,-5.4991 -33.4911,-6.1273 -68.2219,-6.0744 -28.5785,0.043 -34.2496,0.3209 -47,2.299 -20.3481,3.1568 -35.5853,6.3985 -57,12.1265 -22.799,6.0984 -32.7214,7.8549 -48.9028,8.6572 -21.4826,1.0651 -41.1415,-2.0922 -54.2597,-8.7142 -18.382,-9.2792 -24.2919,-22.8356 -25.6853,-58.918 -0.7392,-19.14 -0.8072,-19.5919 -3.6822,-24.4795 -4.3457,-7.3878 -13.293,-15.8169 -20.5966,-19.4035 -12.0194,-5.9025 -24.1549,-7.2796 -40.6189,-4.6094 -40.9887,6.6477 -98.522,42.3143 -162.5506,100.7702 -6.4928,5.9277 -12.2324,10.5136 -12.7545,10.1909 -0.5222,-0.3227 -0.9494,-0.2512 -0.9494,0.1588 0,0.4101 26.775,79.5358 59.5,175.8349 32.7832,96.4702 59.5,176.6197 59.5,178.4977 0,5.25368 -3.4016,11.20508 -8.1725,14.29858 -4.7562,3.084 -8.8398,3.4297 -13.4797,1.1411 z m -98.6585,-414.64978 c -1.0809,-69.0673 -4.9134,-110.4107 -14.7416,-159.0253 -8.7058,-43.06301 -16.3535,-64.50586 -40.9169,-114.72467 -21.8703,-44.71281 -28.9418,-60.48171 -48.0929,-107.24428 -15.7761,-38.52181 -25.3788,-59.04206 -33.258398,-71.07102 -2.9488,-4.50158 -14.2375,-19.62262 -25.0861,-33.60231 -10.8485,-13.979684 -22.4556,-29.504684 -25.7935,-34.500004 -3.3379,-4.99531 -5.8466,-8.40739 -5.5748,-7.58239 0.2717,0.825 42.4688,125.025004 93.771098,276.000004 51.3024,150.97497 94.6058,278.43747 96.2298,283.24997 1.624,4.8125 3.2093,8.75 3.523,8.75 0.3136,0 0.2868,-18.1125 -0.06,-40.25 z"
     style="fill:#000000" />
</svg>
